HIERARCHY
ROOT Hips
{
	OFFSET 0.000000 0.000000 0.000000
	CHANNELS 6 Xposition Yposition Zposition Zrotation Yrotation Xrotation 
	JOINT LeftUpLeg_virtual
	{
		OFFSET 0.000000 0.000000 0.000000
		CHANNELS 3 Zrotation Yrotation Xrotation
		JOINT LeftUpLeg
		{
			OFFSET 8.479694 -4.795517 -0.379053
			CHANNELS 3 Zrotation Yrotation Xrotation
			JOINT LeftLeg
			{
				OFFSET 0.485052 -32.551468 0.112863
				CHANNELS 3 Zrotation Yrotation Xrotation
				JOINT LeftFoot
				{
					OFFSET 0.438033 -32.635670 -3.012641
					CHANNELS 3 Zrotation Yrotation Xrotation
					JOINT LeftToeBase
					{
						OFFSET 0.970169 -13.225353 11.864223
						CHANNELS 3 Zrotation Yrotation Xrotation
						End Site
						{
							OFFSET 0.000000 0.000000 0.000000
						}
					}
				}
			}
		}
	}
	JOINT RightUpLeg_virtual
	{
		OFFSET 0.000000 0.000000 0.000000
		CHANNELS 3 Zrotation Yrotation Xrotation
		JOINT RightUpLeg
		{
			OFFSET -8.479694 -4.795517 -0.379053
			CHANNELS 3 Zrotation Yrotation Xrotation
			JOINT RightLeg
			{
				OFFSET -0.484100 -32.551483 0.112903
				CHANNELS 3 Zrotation Yrotation Xrotation
				JOINT RightFoot
				{
					OFFSET -0.438985 -32.635651 -3.012681
					CHANNELS 3 Zrotation Yrotation Xrotation
					JOINT RightToeBase
					{
						OFFSET -0.970169 -13.225354 11.864223
						CHANNELS 3 Zrotation Yrotation Xrotation
						End Site
						{
							OFFSET 0.000000 0.000000 0.000000
						}
					}
				}
			}
		}
	}
	JOINT Spine_virtual
	{
		OFFSET 0.000000 0.000000 0.000000
		CHANNELS 3 Zrotation Yrotation Xrotation
		JOINT Spine
		{
			OFFSET 0.000000 7.722015 1.166203
			CHANNELS 3 Zrotation Yrotation Xrotation
			JOINT Spine1
			{
				OFFSET 0.000000 12.024086 0.248766
				CHANNELS 3 Zrotation Yrotation Xrotation
				JOINT Spine2
				{
					OFFSET -0.000000 11.503036 -0.491240
					CHANNELS 3 Zrotation Yrotation Xrotation
					JOINT Neck_virtual
					{
						OFFSET 0.000000 0.000000 0.000000
						CHANNELS 3 Zrotation Yrotation Xrotation
						JOINT Neck
						{
							OFFSET 0.000000 18.430687 -3.123054
							CHANNELS 3 Zrotation Yrotation Xrotation
							JOINT Head
							{
								OFFSET -0.000000 9.051071 1.034021
								CHANNELS 3 Zrotation Yrotation Xrotation
								End Site
								{
									OFFSET 0.000000 0.000000 0.000000
								}
							}
						}
					}
					JOINT LeftShoulder_virtual
					{
						OFFSET 0.000000 0.000000 0.000000
						CHANNELS 3 Zrotation Yrotation Xrotation
						JOINT LeftShoulder
						{
							OFFSET 6.197824 13.665230 -4.064723
							CHANNELS 3 Zrotation Yrotation Xrotation
							JOINT LeftArm
							{
								OFFSET 7.778132 -0.187073 -1.709282
								CHANNELS 3 Zrotation Yrotation Xrotation
								JOINT LeftForeArm
								{
									OFFSET 21.954697 0.000000 -2.041093
									CHANNELS 3 Zrotation Yrotation Xrotation
									JOINT LeftHand
									{
										OFFSET 22.992908 0.000000 -0.870901
										CHANNELS 3 Zrotation Yrotation Xrotation
										End Site
										{
											OFFSET 0.000000 0.000000 0.000000
										}
									}
								}
							}
						}
					}
					JOINT RightShoulder_virtual
					{
						OFFSET 0.000000 0.000000 0.000000
						CHANNELS 3 Zrotation Yrotation Xrotation
						JOINT RightShoulder
						{
							OFFSET -6.197824 13.665230 -4.064723
							CHANNELS 3 Zrotation Yrotation Xrotation
							JOINT RightArm
							{
								OFFSET -7.778132 -0.187073 -1.709282
								CHANNELS 3 Zrotation Yrotation Xrotation
								JOINT RightForeArm
								{
									OFFSET -21.954697 0.000000 -2.041093
									CHANNELS 3 Zrotation Yrotation Xrotation
									JOINT RightHand
									{
										OFFSET -22.992908 0.000000 -0.870901
										CHANNELS 3 Zrotation Yrotation Xrotation
										End Site
										{
											OFFSET 0.000000 0.000000 0.000000
										}
									}
								}
							}
						}
					}
				}
			}
		}
	}
}
MOTION
Frames: 5
Frame Time: 0.033333
48.183228 80.491211 11.365781 -179.933383 -29.998713 179.649370 -2.565507 -1.158974 10.141050 9.683924 -9.198549 -28.716284 5.158885 2.533540 33.982384 -1.574895 -3.625179 -7.536566 0.000000 0.000000 0.000000 1.364908 -2.682346 10.051312 -1.965048 4.710163 -20.054552 0.071481 4.055301 29.645224 8.496586 7.154442 -14.381773 0.000000 0.000000 0.000000 2.239256 0.843338 -1.999771 1.749635 -0.226324 -6.697293 -0.746292 -2.143650 8.760743 -0.015387 0.043812 -0.068446 -0.820666 -0.776468 7.752570 -1.442027 1.041475 -3.958106 0.000000 0.000000 0.000000 0.825760 -0.347960 5.110810 0.000780 -7.562358 0.206661 -27.331443 -50.645146 -10.693383 -7.021665 -66.657694 6.539359 0.000000 0.000000 0.000000 -3.502139 1.347718 4.495908 30.907176 12.752113 4.422375 16.804750 37.242556 -7.441512 -6.968406 68.288108 -9.384236 0.000000 0.000000 0.000000 
48.232327 80.491997 11.245384 -179.904492 -29.638639 179.432143 -2.530537 -0.612001 10.399597 9.589843 -9.321680 -28.414400 5.128938 2.638381 34.211694 -1.475268 -3.551939 -7.634338 0.000000 0.000000 0.000000 1.445610 -2.681610 9.987391 -1.643744 3.899802 -20.200457 0.082982 3.456170 29.432528 8.253142 6.790438 -14.266317 0.000000 0.000000 0.000000 2.262191 0.881277 -1.791078 1.702330 -0.016207 -6.699090 -0.736811 -2.115263 8.803636 0.032591 0.090666 -0.135269 -0.878813 -0.879842 7.768236 -1.505686 1.098288 -3.848579 0.000000 0.000000 0.000000 0.800639 -0.238239 5.035194 -0.002759 -7.546041 0.257935 -26.800780 -50.247386 -11.636296 -6.765883 -67.428679 6.744420 0.000000 0.000000 0.000000 -3.572717 1.410817 4.464960 30.996642 12.676576 4.448962 17.185190 37.132901 -7.298392 -6.963003 68.620390 -9.379484 0.000000 0.000000 0.000000 
48.274818 80.482819 11.047155 -179.921089 -30.158424 179.600111 -2.629810 -1.098629 10.706829 9.452157 -9.125112 -28.187159 5.086277 2.694201 34.420591 -1.479300 -3.610555 -7.835774 0.000000 0.000000 0.000000 1.329027 -2.778760 10.166874 -1.420643 3.783238 -20.234251 0.067667 3.235124 29.104867 8.249843 6.584281 -14.220852 0.000000 0.000000 0.000000 2.283280 0.808342 -1.877546 1.668230 -0.114384 -6.887319 -0.773856 -2.117456 8.754671 0.023495 0.071201 -0.053610 -0.928516 -0.817617 7.837913 -1.384324 1.106932 -3.787828 0.000000 0.000000 0.000000 0.777827 -0.261416 5.085579 -0.077547 -7.265713 0.290665 -26.369144 -49.493914 -12.975737 -7.128237 -69.252155 7.651446 0.000000 0.000000 0.000000 -3.606720 1.475172 4.446025 30.855301 12.320450 4.311664 17.840133 36.821604 -7.105026 -6.837510 69.224978 -9.298392 0.000000 0.000000 0.000000 
48.302921 80.482491 10.772226 -179.906650 -30.433807 179.590713 -2.921838 -1.029546 11.073824 9.480601 -8.826253 -27.700179 4.983427 2.501607 33.919143 -1.314319 -3.411862 -7.992888 0.000000 0.000000 0.000000 1.253007 -2.849457 10.513757 -1.185291 3.754729 -20.112966 0.017982 3.036589 28.738099 8.354277 6.347899 -14.136386 0.000000 0.000000 0.000000 2.326299 0.812218 -1.785579 1.679152 -0.033743 -7.161747 -0.768590 -2.114308 8.761445 -0.006610 0.071047 -0.032190 -0.896851 -0.726910 7.837002 -1.096063 1.095166 -3.488042 0.000000 0.000000 0.000000 0.787575 -0.290168 5.075045 -0.174157 -6.999767 0.363691 -26.160787 -48.156303 -14.184258 -7.938467 -71.820286 9.514092 0.000000 0.000000 0.000000 -3.588973 1.355172 4.417735 30.589965 11.978911 4.267339 18.556673 36.433110 -7.086452 -6.656667 70.508972 -9.283803 0.000000 0.000000 0.000000 
48.288803 80.466537 10.427469 -179.762151 -30.371167 179.624905 -3.192680 -0.676393 11.501020 9.664252 -8.448620 -27.093185 4.940908 2.333162 32.369848 -1.126941 -3.162402 -7.959301 0.000000 0.000000 0.000000 1.276127 -2.692838 10.811753 -0.985072 3.830884 -20.059907 -0.063668 2.838689 28.393243 8.571437 6.179521 -14.116619 0.000000 0.000000 0.000000 2.394517 0.924171 -1.757944 1.754925 0.024549 -7.491614 -0.709380 -2.140820 8.754877 -0.025530 0.061123 -0.043248 -0.897068 -0.795938 7.937889 -0.789205 1.249384 -3.226862 0.000000 0.000000 0.000000 0.756449 -0.291209 5.057014 -0.260848 -6.633321 0.530072 -26.128475 -46.289008 -15.067406 -8.633254 -75.122191 11.630071 0.000000 0.000000 0.000000 -3.626167 1.374841 4.487958 30.060738 11.539893 3.971699 19.583657 35.827153 -7.303987 -6.404090 72.677181 -9.272174 0.000000 0.000000 0.000000 
